<svg width="230" height="369" viewBox="0 0 230 369" fill="none" xmlns="http://www.w3.org/2000/svg">
<path d="M230 115C230 178.513 178.513 230 115 230C51.4873 230 0 178.513 0 115C0 51.4873 51.4873 0 115 0C178.513 0 230 51.4873 230 115Z" fill="#1E1818"/>
<circle cx="140.5" cy="227.5" r="49.5" fill="#960000"/>
<circle cx="95" cy="302" r="25" fill="#1E1818"/>
<circle cx="130.5" cy="358.5" r="10.5" fill="#960000"/>
<path d="M141 160C141 182.091 123.091 200 101 200C78.9086 200 61 182.091 61 160C61 137.909 78.9086 120 101 120C123.091 120 141 137.909 141 160Z" fill="white"/>
</svg>
