<svg width="244" height="376" viewBox="0 0 244 376" fill="none" xmlns="http://www.w3.org/2000/svg">
<circle cx="131.5" cy="263.5" r="112.5" fill="#1E1818"/>
<circle r="18" transform="matrix(1 0 0 -1 43 45)" fill="#1E1818"/>
<path d="M121 218.5C121 251.913 93.9132 279 60.5 279C27.0868 279 0 251.913 0 218.5C0 185.087 27.0868 158 60.5 158C93.9132 158 121 185.087 121 218.5Z" fill="#960000"/>
<path d="M121 11C121 17.0751 116.075 22 110 22C103.925 22 99 17.0751 99 11C99 4.92487 103.925 0 110 0C116.075 0 121 4.92487 121 11Z" fill="#960000"/>
<path d="M140 98C140 112.912 127.464 125 112 125C96.536 125 84 112.912 84 98C84 83.0883 96.536 71 112 71C127.464 71 140 83.0883 140 98Z" fill="white"/>
<path d="M140 252.5C140 262.717 131.27 271 120.5 271C109.73 271 101 262.717 101 252.5C101 242.283 109.73 234 120.5 234C131.27 234 140 242.283 140 252.5Z" fill="white"/>
</svg>
