<svg width="216" height="308" viewBox="0 0 216 308" fill="none" xmlns="http://www.w3.org/2000/svg">
<circle cx="156.5" cy="176.5" r="59.5" fill="#1E1818"/>
<circle cx="143" cy="269" r="14" fill="#1E1818"/>
<path d="M165 82.5C165 128.063 128.063 165 82.5 165C36.9365 165 0 128.063 0 82.5C0 36.9365 36.9365 1.06007e-05 82.5 1.06007e-05C128.063 1.06007e-05 165 36.9365 165 82.5Z" fill="#960000"/>
<path d="M118 218.5C118 228.165 110.165 236 100.5 236C90.835 236 83 228.165 83 218.5C83 208.835 90.835 201 100.5 201C110.165 201 118 208.835 118 218.5Z" fill="#960000"/>
<path d="M216 54C216 83.8234 191.823 108 162 108C132.177 108 108 83.8234 108 54C108 24.1766 132.177 0 162 0C191.823 0 216 24.1766 216 54Z" fill="white"/>
<path d="M173 152.5C173 167.136 161.136 179 146.5 179C131.864 179 120 167.136 120 152.5C120 137.864 131.864 126 146.5 126C161.136 126 173 137.864 173 152.5Z" fill="white"/>
<path d="M97 301C97 297.134 93.866 294 90 294C86.134 294 83 297.134 83 301C83 304.866 86.134 308 90 308C93.866 308 97 304.866 97 301Z" fill="white"/>
</svg>
