<svg width="0" height="0" class="hidden">
  <symbol viewBox="0 0 216 308" fill="none" xmlns="http://www.w3.org/2000/svg" id="main-left">
    <circle cx="156.5" cy="176.5" r="59.5" fill="#1E1818"></circle>
    <circle cx="143" cy="269" r="14" fill="#1E1818"></circle>
    <path d="M165 82.5c0 45.563-36.937 82.5-82.5 82.5S0 128.063 0 82.5 36.937 0 82.5 0 165 36.937 165 82.5zm-47 136c0 9.665-7.835 17.5-17.5 17.5S83 228.165 83 218.5s7.835-17.5 17.5-17.5 17.5 7.835 17.5 17.5z" fill="#960000"></path>
    <path d="M216 54c0 29.823-24.177 54-54 54s-54-24.177-54-54 24.177-54 54-54 54 24.177 54 54zm-43 98.5c0 14.636-11.864 26.5-26.5 26.5S120 167.136 120 152.5s11.864-26.5 26.5-26.5 26.5 11.864 26.5 26.5zM97 301a7 7 0 1 0-14 0 7 7 0 0 0 14 0z" fill="#fff"></path>
  </symbol>
  <symbol viewBox="0 0 244 376" fill="none" xmlns="http://www.w3.org/2000/svg" id="main-right">
    <circle cx="131.5" cy="263.5" r="112.5" fill="#1E1818"></circle>
    <circle r="18" transform="matrix(1 0 0 -1 43 45)" fill="#1E1818"></circle>
    <path d="M121 218.5c0 33.413-27.087 60.5-60.5 60.5S0 251.913 0 218.5 27.087 158 60.5 158s60.5 27.087 60.5 60.5zM121 11c0 6.075-4.925 11-11 11s-11-4.925-11-11 4.925-11 11-11 11 4.925 11 11z" fill="#960000"></path>
    <path d="M140 98c0 14.912-12.536 27-28 27s-28-12.088-28-27 12.536-27 28-27 28 12.088 28 27zm0 154.5c0 10.217-8.73 18.5-19.5 18.5s-19.5-8.283-19.5-18.5 8.73-18.5 19.5-18.5 19.5 8.283 19.5 18.5z" fill="#fff"></path>
  </symbol>
  <symbol viewBox="0 0 180 148" fill="none" xmlns="http://www.w3.org/2000/svg" id="backstage-left">
    <path d="M107 53.5c0 29.547-23.953 53.5-53.5 53.5S0 83.047 0 53.5 23.953 0 53.5 0 107 23.953 107 53.5zm45 71c0 12.979-10.521 23.5-23.5 23.5S105 137.479 105 124.5s10.521-23.5 23.5-23.5 23.5 10.521 23.5 23.5z" fill="#960000"></path>
    <circle cx="168.5" cy="65.5" r="11.5" fill="#1E1818"></circle>
  </symbol>
  <symbol viewBox="0 0 230 352" fill="none" xmlns="http://www.w3.org/2000/svg" id="backstage-right">
    <circle cx="115" cy="115" r="115" fill="#1E1818"></circle>
    <circle cx="88" cy="269" r="18" fill="#1E1818"></circle>
    <circle cx="114" cy="344" r="8" fill="#1E1818"></circle>
    <circle cx="124" cy="213" r="36" fill="#960000"></circle>
    <circle cx="149.5" cy="297.5" r="10.5" fill="#960000"></circle>
    <circle cx="64" cy="110" r="51" fill="#fff"></circle>
  </symbol>
  <symbol viewBox="0 0 186 109" fill="none" xmlns="http://www.w3.org/2000/svg" id="more-left">
    <circle cx="45" cy="64" r="45" fill="#fff"></circle>
    <circle cx="139" cy="71" r="13" fill="#fff"></circle>
    <circle cx="79.5" cy="30.5" r="22.5" fill="#1E1818"></circle>
    <circle cx="176.5" cy="9.5" r="9.5" fill="#1E1818"></circle>
  </symbol>
  <symbol viewBox="0 0 329 189" fill="none" xmlns="http://www.w3.org/2000/svg" id="more-right">
    <circle cx="234.5" cy="94.5" r="94.5" fill="#1E1818"></circle>
    <circle cx="151.5" cy="111.5" r="56.5" fill="#fff"></circle>
    <circle cx="62" cy="64" r="20" fill="#1E1818"></circle>
    <circle cx="207.5" cy="89.5" r="29.5" fill="#960000"></circle>
    <path d="M22 95c0 6.075-4.925 11-11 11S0 101.075 0 95s4.925-11 11-11 11 4.925 11 11z" fill="#fff"></path>
  </symbol>
  <symbol viewBox="0 0 190 129" fill="none" xmlns="http://www.w3.org/2000/svg" id="animal-left">
    <circle cx="49.5" cy="49.5" r="49.5" fill="#960000"></circle>
    <circle cx="125.5" cy="104.5" r="24.5" fill="#1E1818"></circle>
    <circle cx="177" cy="37" r="13" fill="#960000"></circle>
  </symbol>
  <symbol viewBox="0 0 230 369" fill="none" xmlns="http://www.w3.org/2000/svg" id="animal-right">
    <path d="M230 115c0 63.513-51.487 115-115 115S0 178.513 0 115 51.487 0 115 0s115 51.487 115 115z" fill="#1E1818"></path>
    <circle cx="140.5" cy="227.5" r="49.5" fill="#960000"></circle>
    <circle cx="95" cy="302" r="25" fill="#1E1818"></circle>
    <circle cx="130.5" cy="358.5" r="10.5" fill="#960000"></circle>
    <path d="M141 160c0 22.091-17.909 40-40 40s-40-17.909-40-40 17.909-40 40-40 40 17.909 40 40z" fill="#fff"></path>
  </symbol>
  <symbol viewBox="0 0 150 152" fill="none" xmlns="http://www.w3.org/2000/svg" id="help-left">
    <circle cx="24.5" cy="127.5" r="24.5" fill="#fff"></circle>
    <circle cx="64.5" cy="54.5" r="15.5" fill="#960000"></circle>
    <circle cx="140" cy="10" r="10" fill="#fff"></circle>
  </symbol>
  <symbol viewBox="0 0 232 248" fill="none" xmlns="http://www.w3.org/2000/svg" id="help-right">
    <circle cx="105" cy="182" r="34" fill="#1E1818"></circle>
    <path d="M168 248c35.346 0 64-28.654 64-64 0-35.346-28.654-64-64-64-35.346 0-64 28.654-64 64 0 35.346 28.654 64 64 64z" fill="#960000"></path>
    <circle cx="160" cy="131" r="40" fill="#fff"></circle>
    <circle cx="159.5" cy="8.5" r="8.5" fill="#fff"></circle>
    <circle cx="102.5" cy="73.5" r="17.5" fill="#960000"></circle>
    <circle cx="14" cy="97" r="14" fill="#1E1818"></circle>
    <circle cx="192" cy="173" r="18" fill="#1E1818"></circle>
  </symbol>
</svg>