<svg width="0" height="0" class="hidden">
  <symbol viewBox="0 0 29 29"  xmlns="http://www.w3.org/2000/svg" id="instagram">
    <path d="M4.248 29h20.504A4.253 4.253 0 0 0 29 24.752V4.248A4.253 4.253 0 0 0 24.752 0H4.248A4.253 4.253 0 0 0 0 4.248v20.504A4.253 4.253 0 0 0 4.248 29zM1.7 4.248a2.552 2.552 0 0 1 2.55-2.549h20.503a2.552 2.552 0 0 1 2.549 2.55v20.503a2.552 2.552 0 0 1-2.549 2.549H4.248a2.552 2.552 0 0 1-2.549-2.549V4.248z"
      ></path>
    <path d="M14.5 22.146c4.216 0 7.646-3.43 7.646-7.646 0-4.216-3.43-7.646-7.646-7.646-4.216 0-7.646 3.43-7.646 7.646 0 4.216 3.43 7.646 7.646 7.646zm0-13.593a5.954 5.954 0 0 1 5.947 5.947 5.954 5.954 0 0 1-5.947 5.947A5.954 5.954 0 0 1 8.553 14.5 5.954 5.954 0 0 1 14.5 8.553zm8.496 0a2.552 2.552 0 0 0 2.549-2.55 2.552 2.552 0 0 0-2.549-2.548 2.552 2.552 0 0 0-2.549 2.549 2.552 2.552 0 0 0 2.55 2.549zm0-3.399a.85.85 0 0 1 0 1.7.85.85 0 0 1 0-1.7z"
      ></path>
  </symbol>
  <symbol viewBox="0 0 30 30"  xmlns="http://www.w3.org/2000/svg" id="facebook">
    <path d="M4.395 30h9.785V19.336h-3.516V15.82h3.516v-4.394a4.4 4.4 0 0 1 4.394-4.395h4.395v3.516h-3.516a1.76 1.76 0 0 0-1.758 1.758v3.515h5.115l-.586 3.516h-4.529V30h7.91A4.4 4.4 0 0 0 30 25.605V4.395A4.4 4.4 0 0 0 25.605 0H4.395A4.4 4.4 0 0 0 0 4.395v21.21A4.4 4.4 0 0 0 4.395 30zM1.758 4.395a2.64 2.64 0 0 1 2.637-2.637h21.21a2.64 2.64 0 0 1 2.637 2.637v21.21a2.64 2.64 0 0 1-2.637 2.637h-6.152v-7.148h4.26l1.172-7.032h-5.432v-1.757h5.274V5.273h-6.153a6.16 6.16 0 0 0-6.152 6.153v2.636H8.906v7.032h3.516v7.148H4.395a2.64 2.64 0 0 1-2.637-2.637V4.395z"
      ></path>
    <path d="M4.395 30h9.785V19.336h-3.516V15.82h3.516v-4.394a4.4 4.4 0 0 1 4.394-4.395h4.395v3.516h-3.516a1.76 1.76 0 0 0-1.758 1.758v3.515h5.115l-.586 3.516h-4.529V30h7.91A4.4 4.4 0 0 0 30 25.605V4.395A4.4 4.4 0 0 0 25.605 0H4.395A4.4 4.4 0 0 0 0 4.395v21.21A4.4 4.4 0 0 0 4.395 30zM1.758 4.395a2.64 2.64 0 0 1 2.637-2.637h21.21a2.64 2.64 0 0 1 2.637 2.637v21.21a2.64 2.64 0 0 1-2.637 2.637h-6.152v-7.148h4.26l1.172-7.032h-5.432v-1.757h5.274V5.273h-6.153a6.16 6.16 0 0 0-6.152 6.153v2.636H8.906v7.032h3.516v7.148H4.395a2.64 2.64 0 0 1-2.637-2.637V4.395z"
      fill="url(#paint0_linear)"></path>
    <defs>
      <linearGradient id="paint0_linear" x1="15" x2="15" y2="30" gradientUnits="userSpaceOnUse">
        <stop stop-color="#fff"></stop>
        <stop offset="1" stop-color="#fff" stop-opacity="0"></stop>
      </linearGradient>
    </defs>
  </symbol>
</svg>